<svg xmlns="http://www.w3.org/2000/svg" viewBox="0 0 1920 1080" role="img" aria-label="장지수용소 대문 이미지">
  <defs>
    <radialGradient id="fog" cx="50%" cy="42%" r="62%">
      <stop offset="0%" stop-color="#8b949e" stop-opacity="0.34"/>
      <stop offset="42%" stop-color="#384150" stop-opacity="0.26"/>
      <stop offset="100%" stop-color="#030508" stop-opacity="0"/>
    </radialGradient>
    <linearGradient id="sky" x1="0" y1="0" x2="0" y2="1">
      <stop offset="0%" stop-color="#202735"/>
      <stop offset="45%" stop-color="#101722"/>
      <stop offset="100%" stop-color="#05070c"/>
    </linearGradient>
    <linearGradient id="metal" x1="0" y1="0" x2="1" y2="1">
      <stop offset="0" stop-color="#f5f0df"/>
      <stop offset="0.26" stop-color="#7c7669"/>
      <stop offset="0.50" stop-color="#f3eee4"/>
      <stop offset="0.72" stop-color="#56524d"/>
      <stop offset="1" stop-color="#d2c7ae"/>
    </linearGradient>
    <filter id="heavyShadow" x="-20%" y="-20%" width="140%" height="140%">
      <feDropShadow dx="0" dy="22" stdDeviation="10" flood-color="#000" flood-opacity="0.72"/>
      <feDropShadow dx="0" dy="0" stdDeviation="2" flood-color="#f4e0b2" flood-opacity="0.34"/>
    </filter>
    <filter id="soft" x="-20%" y="-20%" width="140%" height="140%"><feGaussianBlur stdDeviation="18"/></filter>
  </defs>
  <rect width="1920" height="1080" fill="url(#sky)"/>
  <rect width="1920" height="1080" fill="url(#fog)"/>
  <g opacity="0.55">
    <rect x="0" y="0" width="1920" height="1080" fill="#000" opacity="0.18"/>
    <g fill="#0b0f17" stroke="#334155" stroke-opacity="0.28">
      <rect x="115" y="240" width="150" height="560"/><rect x="1565" y="250" width="150" height="560"/>
      <rect x="330" y="180" width="210" height="650"/><rect x="1370" y="180" width="210" height="650"/>
      <rect x="720" y="120" width="480" height="680" opacity="0.28"/>
    </g>
    <g stroke="#768294" stroke-opacity="0.42" stroke-width="4">
      <line x1="40" y1="370" x2="690" y2="300"/><line x1="1880" y1="385" x2="1230" y2="305"/>
      <line x1="50" y1="458" x2="720" y2="395"/><line x1="1870" y1="468" x2="1200" y2="395"/>
      <line x1="40" y1="548" x2="760" y2="500"/><line x1="1880" y1="560" x2="1160" y2="500"/>
    </g>
  </g>
  <g opacity="0.62" stroke="#07090d" stroke-width="14" fill="none">
    <path d="M0 690 C240 630 420 720 650 660 S1080 590 1320 655 1690 720 1920 650"/>
    <path d="M0 777 C260 700 460 790 710 730 S1100 670 1340 735 1700 806 1920 720"/>
  </g>
  <g opacity="0.55" stroke="#1f2937" stroke-width="5" fill="none">
    <path d="M0 690 C240 630 420 720 650 660 S1080 590 1320 655 1690 720 1920 650"/>
    <path d="M0 777 C260 700 460 790 710 730 S1100 670 1340 735 1700 806 1920 720"/>
  </g>
  <ellipse cx="960" cy="540" rx="520" ry="255" fill="#000" opacity="0.42" filter="url(#soft)"/>
  <g transform="translate(960 320)" opacity="0.94">
    <ellipse cx="0" cy="-28" rx="58" ry="70" fill="#d3c7bb"/>
    <path d="M-125 420 C-115 205 -82 86 0 86 C82 86 115 205 125 420 Z" fill="#111827" stroke="#2d3748" stroke-width="6"/>
    <path d="M-126 130 H126" stroke="#475569" stroke-width="6" opacity="0.7"/>
    <rect x="-84" y="-110" width="168" height="46" rx="9" fill="#111827" stroke="#5b6472" stroke-width="5"/>
    <path d="M-108 -64 C-80 -130 80 -130 108 -64 Z" fill="#111827" stroke="#5b6472" stroke-width="5"/>
    <path d="M-82 -105 H82" stroke="#c7a65a" stroke-width="10"/>
    <circle cx="-70" cy="205" r="9" fill="#c7a65a"/><circle cx="70" cy="205" r="9" fill="#c7a65a"/><circle cx="0" cy="278" r="9" fill="#c7a65a"/>
    <text x="0" y="-76" text-anchor="middle" font-family="Arial Black, Pretendard, sans-serif" font-size="22" fill="#d9bf73">★</text>
  </g>
  <rect y="0" width="1920" height="1080" fill="url(#sky)" opacity="0.18"/>
  <g filter="url(#heavyShadow)">
    <text x="960" y="835" text-anchor="middle" font-family="Arial Black, Pretendard, sans-serif" font-size="188" font-weight="900" letter-spacing="-10" fill="url(#metal)" stroke="#1f2937" stroke-width="5">장지수용소</text>
  </g>
  <rect y="820" width="1920" height="260" fill="url(#fog)" opacity="0.22"/>
</svg>
