<svg width="441" height="261" viewBox="0 0 441 261" fill="none" xmlns="http://www.w3.org/2000/svg">
  <rect width="441" height="261" rx="20" fill="#0E1218"/>
  <defs>
    <linearGradient id="soopGradient" x1="141" y1="130.5" x2="301" y2="130.5" gradientUnits="userSpaceOnUse">
      <stop stop-color="#0E7BFF"/>
      <stop offset="1" stop-color="#16E0D8"/>
    </linearGradient>
  </defs>
  <path d="M75.4 183.9C48.1 183.9 30.4 171.3 26.2 149.7H56.8C60 158.1 66.8 162.3 76 162.3C85 162.3 90.4 158.7 90.4 152.1C90.4 145.1 84 142.1 70.4 138.9L57.6 135.9C36 130.9 24.4 119.9 24.4 101.1C24.4 78.1 43.4 62.3 73.4 62.3C101.2 62.3 118.4 74.7 122.2 95.9H92.8C89.8 88.3 83.8 84.5 75 84.5C66.6 84.5 61.4 88.1 61.4 94.1C61.4 100.3 66.8 103.1 79 105.9L91.6 108.7C116 114.3 127.4 125.3 127.4 145.7C127.4 169.7 107.2 183.9 75.4 183.9Z" fill="#F4F5F7"/>
  <path fill-rule="evenodd" clip-rule="evenodd" d="M148 130.5C148 92.1 179.1 61 217.5 61H225.5C239.6 61 251 72.4 251 86.5C251 94.4 247.4 101.5 241.8 106.2C247.4 110.9 251 118 251 125.9V135.1C251 143 247.4 150.1 241.8 154.8C247.4 159.5 251 166.6 251 174.5C251 188.6 239.6 200 225.5 200H217.5C179.1 200 148 168.9 148 130.5ZM217.5 88.6C194.3 88.6 175.6 107.3 175.6 130.5C175.6 153.7 194.3 172.4 217.5 172.4H225.5C224.2 172.4 223.1 171.3 223.1 170V157.6C223.1 145.2 233.2 135.1 245.6 135.1V125.9C233.2 125.9 223.1 115.8 223.1 103.4V91C223.1 89.7 224.2 88.6 225.5 88.6H217.5Z" fill="url(#soopGradient)"/>
  <path fill-rule="evenodd" clip-rule="evenodd" d="M222.4 91C222.4 88.7 224.2 86.9 226.5 86.9H274.5C311.8 86.9 342.1 117.2 342.1 154.5C342.1 191.8 311.8 222.1 274.5 222.1H226.5C224.2 222.1 222.4 220.3 222.4 218V205.6C222.4 193.2 232.5 183.1 244.9 183.1H274.5C296.6 183.1 314.5 165.2 314.5 143.1C314.5 121 296.6 103.1 274.5 103.1H244.9C232.5 103.1 222.4 93 222.4 80.6V91Z" fill="url(#soopGradient)" opacity="0.92"/>
  <path d="M336.4 64.7H384.9C413.6 64.7 431.5 79.1 431.5 102.7C431.5 126.5 413.6 140.9 384.9 140.9H365.5V183.3H336.4V64.7ZM381.9 118.9C394.1 118.9 401.1 113.3 401.1 102.7C401.1 92.1 394.1 86.5 381.9 86.5H365.5V118.9H381.9Z" fill="#F4F5F7"/>
</svg>
