<svg xmlns="http://www.w3.org/2000/svg" viewBox="0 0 682 418" role="img" aria-label="SOOP">
  <defs>
    <linearGradient id="soopG" x1="0" y1="0" x2="1" y2="1">
      <stop offset="0" stop-color="#058cff"/>
      <stop offset="0.45" stop-color="#02b7ff"/>
      <stop offset="1" stop-color="#15f0d2"/>
    </linearGradient>
  </defs>
  <rect width="682" height="418" fill="#111418"/>
  <path fill="url(#soopG)" d="M150 214c0-74 60-134 134-134h10c39 0 72 17 96 44 24-27 57-44 96-44h10c74 0 134 60 134 134s-60 134-134 134h-10c-39 0-72-17-96-44-24 27-57 44-96 44h-10c-74 0-134-60-134-134Zm135-66c-37 0-66 29-66 66s29 66 66 66h10c37 0 66-29 66-66s-29-66-66-66h-10Zm200 0c-37 0-66 29-66 66s29 66 66 66h10c37 0 66-29 66-66s-29-66-66-66h-10Z"/>
</svg>