<svg xmlns="http://www.w3.org/2000/svg" viewBox="0 0 420 170" role="img" aria-label="SOOP">
  <defs>
    <linearGradient id="g" x1="0" y1="0" x2="1" y2="1">
      <stop offset="0" stop-color="#1297ff"/><stop offset="0.48" stop-color="#05b8ff"/><stop offset="1" stop-color="#20f1d1"/>
    </linearGradient>
  </defs>
  <rect width="420" height="170" rx="32" fill="#0f131a"/>
  <path d="M44 122c25 13 74 13 92-7 16-18 7-43-27-49l-18-3c-13-2-19-6-17-13 3-10 28-11 50 1l18-31C104 0 43 8 31 45 21 77 44 92 82 99l17 3c15 3 20 8 16 16-5 10-34 10-56-3l-15 7Z" fill="#fff"/>
  <path d="M155 52c18-31 66-31 84 0 18-31 66-31 84 0 18 31-6 71-42 71h-18c-18 0-30-8-37-20-7 12-19 20-37 20h-18c-36 0-60-40-42-71Zm49 18c-13 0-23 10-23 23s10 23 23 23h12c13 0 23-10 23-23s-10-23-23-23h-12Zm84 0c-13 0-23 10-23 23s10 23 23 23h12c13 0 23-10 23-23s-10-23-23-23h-12Z" fill="url(#g)"/>
  <path d="M338 16h47c29 0 48 18 48 45s-19 45-48 45h-15v42h-32V16Zm32 30v31h12c12 0 20-6 20-16s-8-15-20-15h-12Z" fill="#fff"/>
</svg>
