<svg width="860" height="440" viewBox="0 0 860 440" fill="none" xmlns="http://www.w3.org/2000/svg">
  <rect width="860" height="440" rx="24" fill="#0F131A"/>
  <g>
    <path d="M153.8 302.4C92.2 302.4 51.5 274 41.8 225.7H110.2C117.1 244.2 132.4 253.5 152.8 253.5C172.1 253.5 183.7 245.6 183.7 231.8C183.7 216.9 169.3 210.4 138.5 203L111.5 196.7C62.7 185.3 35.7 160.8 35.7 118.9C35.7 67.6 78.2 32.6 146.9 32.6C210.9 32.6 250.7 60 259.5 107.1H194.3C187.5 90 173.5 81.6 153.1 81.6C134.6 81.6 123.4 89.1 123.4 102C123.4 115.3 135.4 121.3 163.7 127.8L190.9 134C245.9 146.8 271.9 170.6 271.9 215.8C271.9 269.8 226.1 302.4 153.8 302.4Z" fill="#F2F4F7"/>
    <path d="M698.8 40.1H778.7C827.2 40.1 858 64.8 858 105.5C858 146.9 827.2 171.2 778.7 171.2H747.1V300.8H698.8V40.1ZM773.9 131.3C796.4 131.3 808.5 121.6 808.5 105.5C808.5 89.3 796.4 79.7 773.9 79.7H747.1V131.3H773.9Z" fill="#F2F4F7"/>
    <path fill-rule="evenodd" clip-rule="evenodd" d="M330 168C330 104.5 381.5 53 445 53C470.2 53 492.4 61.1 510 74.9C527.6 61.1 549.8 53 575 53C638.5 53 690 104.5 690 168C690 231.5 638.5 283 575 283C549.8 283 527.6 274.9 510 261.1C492.4 274.9 470.2 283 445 283C381.5 283 330 231.5 330 168ZM445 103.5C409.4 103.5 380.5 132.4 380.5 168C380.5 203.6 409.4 232.5 445 232.5C480.6 232.5 509.5 203.6 509.5 168C509.5 132.4 480.6 103.5 445 103.5ZM575 103.5C539.4 103.5 510.5 132.4 510.5 168C510.5 203.6 539.4 232.5 575 232.5C610.6 232.5 639.5 203.6 639.5 168C639.5 132.4 610.6 103.5 575 103.5Z" fill="url(#paint0_linear)"/>
    <rect x="437" y="142" width="146" height="52" rx="26" fill="url(#paint0_linear)"/>
  </g>
  <defs>
    <linearGradient id="paint0_linear" x1="331.5" y1="168" x2="690" y2="168" gradientUnits="userSpaceOnUse">
      <stop stop-color="#1780FF"/>
      <stop offset="1" stop-color="#19E2D8"/>
    </linearGradient>
  </defs>
</svg>
